<mxfile host="app.diagrams.net" agent="Mozilla/5.0 (Macintosh; Intel Mac OS X 10_15_7) AppleWebKit/537.36 (KHTML, like Gecko) Chrome/133.0.0.0 Safari/537.36" version="26.0.16" pages="5">
  <diagram name="데모환경구성" id="Gy_MAu10I8CRUGXKdw8J">
    <mxGraphModel dx="1434" dy="761" grid="1" gridSize="10" guides="1" tooltips="1" connect="1" arrows="1" fold="1" page="1" pageScale="1" pageWidth="827" pageHeight="1169" math="0" shadow="0">
      <root>
        <mxCell id="0" />
        <mxCell id="1" parent="0" />
        <mxCell id="0w64u3SmMH-cl6TlUpGh-1" value="" style="rounded=0;whiteSpace=wrap;html=1;fillColor=#e1d5e7;strokeColor=#9673a6;" parent="1" vertex="1">
          <mxGeometry x="898.5" y="328" width="163" height="212" as="geometry" />
        </mxCell>
        <mxCell id="YR_MSNFtBX2PaIIzT0BV-8" value="" style="rounded=0;whiteSpace=wrap;html=1;fillColor=#d5e8d4;strokeColor=none;" parent="1" vertex="1">
          <mxGeometry x="707" y="328" width="163" height="212" as="geometry" />
        </mxCell>
        <mxCell id="3QfQ6WHDP116zgrPjMbN-5" style="edgeStyle=orthogonalEdgeStyle;rounded=0;orthogonalLoop=1;jettySize=auto;html=1;" parent="1" source="3QfQ6WHDP116zgrPjMbN-1" target="3QfQ6WHDP116zgrPjMbN-2" edge="1">
          <mxGeometry relative="1" as="geometry" />
        </mxCell>
        <mxCell id="3QfQ6WHDP116zgrPjMbN-1" value="Device" style="rounded=0;whiteSpace=wrap;html=1;" parent="1" vertex="1">
          <mxGeometry x="350" y="350" width="120" height="60" as="geometry" />
        </mxCell>
        <mxCell id="3QfQ6WHDP116zgrPjMbN-6" style="edgeStyle=orthogonalEdgeStyle;rounded=0;orthogonalLoop=1;jettySize=auto;html=1;" parent="1" source="3QfQ6WHDP116zgrPjMbN-2" target="3QfQ6WHDP116zgrPjMbN-3" edge="1">
          <mxGeometry relative="1" as="geometry" />
        </mxCell>
        <mxCell id="3QfQ6WHDP116zgrPjMbN-2" value="IoTHub" style="rounded=0;whiteSpace=wrap;html=1;" parent="1" vertex="1">
          <mxGeometry x="550" y="350" width="120" height="60" as="geometry" />
        </mxCell>
        <mxCell id="3QfQ6WHDP116zgrPjMbN-7" style="edgeStyle=orthogonalEdgeStyle;rounded=0;orthogonalLoop=1;jettySize=auto;html=1;startArrow=classic;startFill=1;" parent="1" source="3QfQ6WHDP116zgrPjMbN-3" target="3QfQ6WHDP116zgrPjMbN-4" edge="1">
          <mxGeometry relative="1" as="geometry" />
        </mxCell>
        <mxCell id="3QfQ6WHDP116zgrPjMbN-3" value="Eventhub&lt;div&gt;D2C&lt;/div&gt;" style="rounded=0;whiteSpace=wrap;html=1;" parent="1" vertex="1">
          <mxGeometry x="730" y="350" width="120" height="60" as="geometry" />
        </mxCell>
        <mxCell id="YR_MSNFtBX2PaIIzT0BV-13" style="edgeStyle=orthogonalEdgeStyle;rounded=0;orthogonalLoop=1;jettySize=auto;html=1;entryX=1;entryY=0.25;entryDx=0;entryDy=0;" parent="1" source="3QfQ6WHDP116zgrPjMbN-4" target="LASlQcamay4YTpXHAxjW-44" edge="1">
          <mxGeometry relative="1" as="geometry">
            <Array as="points">
              <mxPoint x="980" y="440" />
              <mxPoint x="885" y="440" />
              <mxPoint x="885" y="475" />
            </Array>
          </mxGeometry>
        </mxCell>
        <mxCell id="3QfQ6WHDP116zgrPjMbN-4" value="Consumer A" style="rounded=0;whiteSpace=wrap;html=1;" parent="1" vertex="1">
          <mxGeometry x="920" y="350" width="120" height="60" as="geometry" />
        </mxCell>
        <mxCell id="3QfQ6WHDP116zgrPjMbN-8" value="D2C" style="text;html=1;align=center;verticalAlign=middle;resizable=0;points=[];autosize=1;strokeColor=none;fillColor=none;" parent="1" vertex="1">
          <mxGeometry x="475" y="358" width="50" height="30" as="geometry" />
        </mxCell>
        <mxCell id="3QfQ6WHDP116zgrPjMbN-9" value="Pub" style="text;html=1;align=center;verticalAlign=middle;resizable=0;points=[];autosize=1;strokeColor=none;fillColor=none;" parent="1" vertex="1">
          <mxGeometry x="680" y="358" width="40" height="30" as="geometry" />
        </mxCell>
        <mxCell id="3QfQ6WHDP116zgrPjMbN-10" value="Sub" style="text;html=1;align=center;verticalAlign=middle;resizable=0;points=[];autosize=1;strokeColor=none;fillColor=none;" parent="1" vertex="1">
          <mxGeometry x="865" y="358" width="40" height="30" as="geometry" />
        </mxCell>
        <mxCell id="LASlQcamay4YTpXHAxjW-44" value="Eventhub&lt;div&gt;C2D&lt;/div&gt;" style="rounded=0;whiteSpace=wrap;html=1;" parent="1" vertex="1">
          <mxGeometry x="730" y="460" width="120" height="60" as="geometry" />
        </mxCell>
        <mxCell id="YR_MSNFtBX2PaIIzT0BV-1" value="AKS Pod" style="text;html=1;align=center;verticalAlign=middle;resizable=0;points=[];autosize=1;strokeColor=none;fillColor=none;" parent="1" vertex="1">
          <mxGeometry x="989" y="406" width="70" height="30" as="geometry" />
        </mxCell>
        <mxCell id="YR_MSNFtBX2PaIIzT0BV-7" style="edgeStyle=orthogonalEdgeStyle;rounded=0;orthogonalLoop=1;jettySize=auto;html=1;" parent="1" source="YR_MSNFtBX2PaIIzT0BV-2" target="YR_MSNFtBX2PaIIzT0BV-6" edge="1">
          <mxGeometry relative="1" as="geometry" />
        </mxCell>
        <mxCell id="YR_MSNFtBX2PaIIzT0BV-10" style="edgeStyle=orthogonalEdgeStyle;rounded=0;orthogonalLoop=1;jettySize=auto;html=1;startArrow=classic;startFill=1;" parent="1" source="YR_MSNFtBX2PaIIzT0BV-2" target="LASlQcamay4YTpXHAxjW-44" edge="1">
          <mxGeometry relative="1" as="geometry" />
        </mxCell>
        <mxCell id="YR_MSNFtBX2PaIIzT0BV-2" value="Consumer&amp;nbsp;&lt;span style=&quot;background-color: transparent; color: light-dark(rgb(0, 0, 0), rgb(255, 255, 255));&quot;&gt;B&lt;/span&gt;" style="rounded=0;whiteSpace=wrap;html=1;" parent="1" vertex="1">
          <mxGeometry x="920" y="460" width="120" height="60" as="geometry" />
        </mxCell>
        <mxCell id="YR_MSNFtBX2PaIIzT0BV-3" value="AKS Pod" style="text;html=1;align=center;verticalAlign=middle;resizable=0;points=[];autosize=1;strokeColor=none;fillColor=none;" parent="1" vertex="1">
          <mxGeometry x="980" y="515" width="70" height="30" as="geometry" />
        </mxCell>
        <mxCell id="YR_MSNFtBX2PaIIzT0BV-6" value="CosmosDB" style="rounded=0;whiteSpace=wrap;html=1;" parent="1" vertex="1">
          <mxGeometry x="1121" y="460" width="120" height="60" as="geometry" />
        </mxCell>
        <mxCell id="YR_MSNFtBX2PaIIzT0BV-11" value="Sub" style="text;html=1;align=center;verticalAlign=middle;resizable=0;points=[];autosize=1;strokeColor=none;fillColor=none;" parent="1" vertex="1">
          <mxGeometry x="865" y="484" width="40" height="30" as="geometry" />
        </mxCell>
        <mxCell id="YR_MSNFtBX2PaIIzT0BV-12" value="Pub" style="text;html=1;align=center;verticalAlign=middle;resizable=0;points=[];autosize=1;strokeColor=none;fillColor=none;" parent="1" vertex="1">
          <mxGeometry x="880" y="419" width="40" height="30" as="geometry" />
        </mxCell>
        <mxCell id="YR_MSNFtBX2PaIIzT0BV-14" value="Insert" style="text;html=1;align=center;verticalAlign=middle;resizable=0;points=[];autosize=1;strokeColor=none;fillColor=none;" parent="1" vertex="1">
          <mxGeometry x="1050" y="466" width="50" height="30" as="geometry" />
        </mxCell>
      </root>
    </mxGraphModel>
  </diagram>
  <diagram id="63EEbNXd9l58lLF-qReM" name="IoTHub">
    <mxGraphModel dx="2261" dy="738" grid="1" gridSize="10" guides="1" tooltips="1" connect="1" arrows="1" fold="1" page="1" pageScale="1" pageWidth="827" pageHeight="1169" math="0" shadow="0">
      <root>
        <mxCell id="0" />
        <mxCell id="1" parent="0" />
        <mxCell id="2hbVpGD8W-kF15XgmGMa-1" value="" style="outlineConnect=0;dashed=0;verticalLabelPosition=bottom;verticalAlign=top;align=center;html=1;shape=mxgraph.aws3.alexa_enabled_device;fillColor=#5294CF;gradientColor=none;" parent="1" vertex="1">
          <mxGeometry x="20" y="323.25" width="79.5" height="79.5" as="geometry" />
        </mxCell>
        <mxCell id="2hbVpGD8W-kF15XgmGMa-2" value="" style="image;aspect=fixed;html=1;points=[];align=center;fontSize=12;image=img/lib/azure2/iot/IoT_Hub.svg;" parent="1" vertex="1">
          <mxGeometry x="740" y="331" width="64" height="64" as="geometry" />
        </mxCell>
        <mxCell id="2hbVpGD8W-kF15XgmGMa-3" value="" style="image;aspect=fixed;html=1;points=[];align=center;fontSize=12;image=img/lib/azure2/iot/Device_Provisioning_Services.svg;" parent="1" vertex="1">
          <mxGeometry x="410" y="329" width="64" height="66" as="geometry" />
        </mxCell>
        <mxCell id="2hbVpGD8W-kF15XgmGMa-4" value="" style="endArrow=none;dashed=1;html=1;rounded=0;" parent="1" edge="1">
          <mxGeometry width="50" height="50" relative="1" as="geometry">
            <mxPoint x="60" y="740" as="sourcePoint" />
            <mxPoint x="60" y="420" as="targetPoint" />
          </mxGeometry>
        </mxCell>
        <mxCell id="2hbVpGD8W-kF15XgmGMa-5" value="" style="endArrow=none;dashed=1;html=1;rounded=0;" parent="1" edge="1">
          <mxGeometry width="50" height="50" relative="1" as="geometry">
            <mxPoint x="441.5" y="740" as="sourcePoint" />
            <mxPoint x="441.5" y="420" as="targetPoint" />
          </mxGeometry>
        </mxCell>
        <mxCell id="2hbVpGD8W-kF15XgmGMa-6" value="" style="endArrow=none;dashed=1;html=1;rounded=0;" parent="1" edge="1">
          <mxGeometry width="50" height="50" relative="1" as="geometry">
            <mxPoint x="760" y="745" as="sourcePoint" />
            <mxPoint x="760" y="425" as="targetPoint" />
          </mxGeometry>
        </mxCell>
        <mxCell id="2hbVpGD8W-kF15XgmGMa-7" value="" style="endArrow=classic;html=1;rounded=0;" parent="1" edge="1">
          <mxGeometry width="50" height="50" relative="1" as="geometry">
            <mxPoint x="450" y="460" as="sourcePoint" />
            <mxPoint x="750" y="460" as="targetPoint" />
          </mxGeometry>
        </mxCell>
        <mxCell id="2hbVpGD8W-kF15XgmGMa-8" value="Link 연결" style="text;html=1;align=center;verticalAlign=middle;resizable=0;points=[];autosize=1;strokeColor=none;fillColor=none;" parent="1" vertex="1">
          <mxGeometry x="440" y="428" width="70" height="30" as="geometry" />
        </mxCell>
        <mxCell id="2hbVpGD8W-kF15XgmGMa-9" value="" style="endArrow=classic;html=1;rounded=0;" parent="1" edge="1">
          <mxGeometry width="50" height="50" relative="1" as="geometry">
            <mxPoint x="70" y="520" as="sourcePoint" />
            <mxPoint x="430" y="520" as="targetPoint" />
          </mxGeometry>
        </mxCell>
        <mxCell id="2hbVpGD8W-kF15XgmGMa-10" value="연결요청" style="text;html=1;align=center;verticalAlign=middle;resizable=0;points=[];autosize=1;strokeColor=none;fillColor=none;" parent="1" vertex="1">
          <mxGeometry x="245" y="488" width="70" height="30" as="geometry" />
        </mxCell>
        <mxCell id="2hbVpGD8W-kF15XgmGMa-11" value="" style="endArrow=classic;html=1;rounded=0;" parent="1" edge="1">
          <mxGeometry width="50" height="50" relative="1" as="geometry">
            <mxPoint x="430" y="584" as="sourcePoint" />
            <mxPoint x="80" y="584" as="targetPoint" />
          </mxGeometry>
        </mxCell>
        <mxCell id="2hbVpGD8W-kF15XgmGMa-12" value="IoTHub 연결정보 전송" style="text;html=1;align=center;verticalAlign=middle;resizable=0;points=[];autosize=1;strokeColor=none;fillColor=none;" parent="1" vertex="1">
          <mxGeometry x="140" y="548" width="140" height="30" as="geometry" />
        </mxCell>
        <mxCell id="2hbVpGD8W-kF15XgmGMa-13" value="" style="endArrow=classic;html=1;rounded=0;" parent="1" edge="1">
          <mxGeometry width="50" height="50" relative="1" as="geometry">
            <mxPoint x="70" y="640" as="sourcePoint" />
            <mxPoint x="740" y="640" as="targetPoint" />
          </mxGeometry>
        </mxCell>
        <mxCell id="2hbVpGD8W-kF15XgmGMa-14" value="IoTHub 연결 요청 Connected" style="text;html=1;align=center;verticalAlign=middle;resizable=0;points=[];autosize=1;strokeColor=none;fillColor=none;" parent="1" vertex="1">
          <mxGeometry x="70" y="608" width="180" height="30" as="geometry" />
        </mxCell>
        <mxCell id="UHLiWC09wlbx7368hRoC-2" style="edgeStyle=orthogonalEdgeStyle;rounded=0;orthogonalLoop=1;jettySize=auto;html=1;" parent="1" source="UHLiWC09wlbx7368hRoC-3" target="UHLiWC09wlbx7368hRoC-5" edge="1">
          <mxGeometry relative="1" as="geometry">
            <Array as="points">
              <mxPoint x="160" y="1010" />
              <mxPoint x="160" y="1010" />
            </Array>
          </mxGeometry>
        </mxCell>
        <mxCell id="UHLiWC09wlbx7368hRoC-3" value="Device" style="rounded=0;whiteSpace=wrap;html=1;" parent="1" vertex="1">
          <mxGeometry x="-10" y="1000" width="120" height="30" as="geometry" />
        </mxCell>
        <mxCell id="UHLiWC09wlbx7368hRoC-4" style="edgeStyle=orthogonalEdgeStyle;rounded=0;orthogonalLoop=1;jettySize=auto;html=1;entryX=0;entryY=0.5;entryDx=0;entryDy=0;" parent="1" source="UHLiWC09wlbx7368hRoC-5" target="UHLiWC09wlbx7368hRoC-6" edge="1">
          <mxGeometry relative="1" as="geometry">
            <Array as="points">
              <mxPoint x="480" y="1015" />
              <mxPoint x="480" y="935" />
            </Array>
          </mxGeometry>
        </mxCell>
        <mxCell id="cKv4bgWYW7p84ZU6TEcU-6" style="edgeStyle=orthogonalEdgeStyle;rounded=0;orthogonalLoop=1;jettySize=auto;html=1;entryX=0;entryY=0.5;entryDx=0;entryDy=0;" parent="1" source="UHLiWC09wlbx7368hRoC-5" target="UHLiWC09wlbx7368hRoC-12" edge="1">
          <mxGeometry relative="1" as="geometry">
            <Array as="points">
              <mxPoint x="480" y="1015" />
              <mxPoint x="480" y="1095" />
            </Array>
          </mxGeometry>
        </mxCell>
        <mxCell id="UHLiWC09wlbx7368hRoC-5" value="IoTHub" style="rounded=0;whiteSpace=wrap;html=1;" parent="1" vertex="1">
          <mxGeometry x="340" y="1000" width="120" height="30" as="geometry" />
        </mxCell>
        <mxCell id="UHLiWC09wlbx7368hRoC-17" style="edgeStyle=orthogonalEdgeStyle;rounded=0;orthogonalLoop=1;jettySize=auto;html=1;entryX=0;entryY=0.5;entryDx=0;entryDy=0;" parent="1" source="UHLiWC09wlbx7368hRoC-6" target="UHLiWC09wlbx7368hRoC-16" edge="1">
          <mxGeometry relative="1" as="geometry" />
        </mxCell>
        <mxCell id="UHLiWC09wlbx7368hRoC-6" value="Eventhub" style="rounded=0;whiteSpace=wrap;html=1;" parent="1" vertex="1">
          <mxGeometry x="560" y="920" width="120" height="30" as="geometry" />
        </mxCell>
        <mxCell id="UHLiWC09wlbx7368hRoC-7" value="&lt;div&gt;2) Device Twin Change Events&lt;/div&gt;" style="text;html=1;align=center;verticalAlign=middle;resizable=0;points=[];autosize=1;strokeColor=none;fillColor=none;" parent="1" vertex="1">
          <mxGeometry x="130" y="1020" width="190" height="30" as="geometry" />
        </mxCell>
        <mxCell id="UHLiWC09wlbx7368hRoC-8" value="1) Device Telemetry Message" style="text;html=1;align=center;verticalAlign=middle;resizable=0;points=[];autosize=1;strokeColor=none;fillColor=none;" parent="1" vertex="1">
          <mxGeometry x="135" y="980" width="180" height="30" as="geometry" />
        </mxCell>
        <mxCell id="UHLiWC09wlbx7368hRoC-9" style="edgeStyle=orthogonalEdgeStyle;rounded=0;orthogonalLoop=1;jettySize=auto;html=1;" parent="1" edge="1">
          <mxGeometry relative="1" as="geometry">
            <mxPoint x="110" y="1020" as="sourcePoint" />
            <mxPoint x="340" y="1020" as="targetPoint" />
            <Array as="points">
              <mxPoint x="160" y="1020" />
              <mxPoint x="160" y="1020" />
            </Array>
          </mxGeometry>
        </mxCell>
        <mxCell id="UHLiWC09wlbx7368hRoC-10" value="Routing" style="text;html=1;align=center;verticalAlign=middle;resizable=0;points=[];autosize=1;strokeColor=none;fillColor=none;" parent="1" vertex="1">
          <mxGeometry x="474" y="910" width="60" height="30" as="geometry" />
        </mxCell>
        <mxCell id="UHLiWC09wlbx7368hRoC-19" style="edgeStyle=orthogonalEdgeStyle;rounded=0;orthogonalLoop=1;jettySize=auto;html=1;" parent="1" source="UHLiWC09wlbx7368hRoC-12" target="UHLiWC09wlbx7368hRoC-18" edge="1">
          <mxGeometry relative="1" as="geometry" />
        </mxCell>
        <mxCell id="UHLiWC09wlbx7368hRoC-12" value="Eventhub" style="rounded=0;whiteSpace=wrap;html=1;" parent="1" vertex="1">
          <mxGeometry x="560" y="1080" width="120" height="30" as="geometry" />
        </mxCell>
        <mxCell id="UHLiWC09wlbx7368hRoC-13" value="Routing" style="text;html=1;align=center;verticalAlign=middle;resizable=0;points=[];autosize=1;strokeColor=none;fillColor=none;" parent="1" vertex="1">
          <mxGeometry x="474" y="1090" width="60" height="30" as="geometry" />
        </mxCell>
        <mxCell id="UHLiWC09wlbx7368hRoC-16" value="AKS Pod" style="rounded=0;whiteSpace=wrap;html=1;" parent="1" vertex="1">
          <mxGeometry x="730" y="920" width="120" height="30" as="geometry" />
        </mxCell>
        <mxCell id="UHLiWC09wlbx7368hRoC-18" value="AKS Pod" style="rounded=0;whiteSpace=wrap;html=1;" parent="1" vertex="1">
          <mxGeometry x="735" y="1080" width="120" height="30" as="geometry" />
        </mxCell>
        <mxCell id="UHLiWC09wlbx7368hRoC-21" value="D2C 메시지 처리" style="text;html=1;align=center;verticalAlign=middle;resizable=0;points=[];autosize=1;strokeColor=none;fillColor=none;" parent="1" vertex="1">
          <mxGeometry x="735" y="890" width="110" height="30" as="geometry" />
        </mxCell>
        <mxCell id="UHLiWC09wlbx7368hRoC-22" value="Twin 메시지 처리" style="text;html=1;align=center;verticalAlign=middle;resizable=0;points=[];autosize=1;strokeColor=none;fillColor=none;" parent="1" vertex="1">
          <mxGeometry x="740" y="1050" width="110" height="30" as="geometry" />
        </mxCell>
        <mxCell id="cKv4bgWYW7p84ZU6TEcU-1" value="" style="endArrow=none;html=1;rounded=0;startArrow=classic;startFill=0;" parent="1" edge="1">
          <mxGeometry width="50" height="50" relative="1" as="geometry">
            <mxPoint x="70" y="670" as="sourcePoint" />
            <mxPoint x="740" y="670" as="targetPoint" />
          </mxGeometry>
        </mxCell>
        <mxCell id="cKv4bgWYW7p84ZU6TEcU-2" value="Twin Change Event - Desired 전달" style="text;html=1;align=center;verticalAlign=middle;resizable=0;points=[];autosize=1;strokeColor=none;fillColor=none;" parent="1" vertex="1">
          <mxGeometry x="545" y="646" width="210" height="30" as="geometry" />
        </mxCell>
        <mxCell id="cKv4bgWYW7p84ZU6TEcU-3" value="" style="endArrow=classic;html=1;rounded=0;startArrow=none;startFill=0;endFill=1;" parent="1" edge="1">
          <mxGeometry width="50" height="50" relative="1" as="geometry">
            <mxPoint x="70" y="720" as="sourcePoint" />
            <mxPoint x="740" y="720" as="targetPoint" />
          </mxGeometry>
        </mxCell>
        <mxCell id="cKv4bgWYW7p84ZU6TEcU-4" value="Twin Change Event - Reported 전달" style="text;html=1;align=center;verticalAlign=middle;resizable=0;points=[];autosize=1;strokeColor=none;fillColor=none;" parent="1" vertex="1">
          <mxGeometry x="70" y="690" width="210" height="30" as="geometry" />
        </mxCell>
      </root>
    </mxGraphModel>
  </diagram>
  <diagram id="M0BhFZu0r24gku4almAI" name="Eventhub">
    <mxGraphModel dx="1889" dy="564" grid="1" gridSize="10" guides="1" tooltips="1" connect="1" arrows="1" fold="1" page="1" pageScale="1" pageWidth="827" pageHeight="1169" math="0" shadow="0">
      <root>
        <mxCell id="0" />
        <mxCell id="1" parent="0" />
        <mxCell id="GP4y-Mlp-6Uv0yW0TzoZ-34" value="" style="rounded=0;whiteSpace=wrap;html=1;" vertex="1" parent="1">
          <mxGeometry x="-130" y="40" width="730" height="440" as="geometry" />
        </mxCell>
        <mxCell id="5etXErPsKn6r9TjkHKi_-3" value="" style="rounded=0;whiteSpace=wrap;html=1;" vertex="1" parent="1">
          <mxGeometry x="-90" y="120" width="310" height="320" as="geometry" />
        </mxCell>
        <mxCell id="5etXErPsKn6r9TjkHKi_-1" value="" style="rounded=0;whiteSpace=wrap;html=1;" vertex="1" parent="1">
          <mxGeometry x="-20" y="180" width="240" height="220" as="geometry" />
        </mxCell>
        <mxCell id="eOPevNgycxf80g2ltMbL-1" value="Partition" style="rounded=0;whiteSpace=wrap;html=1;" parent="1" vertex="1">
          <mxGeometry x="90" y="275" width="120" height="30" as="geometry" />
        </mxCell>
        <mxCell id="GP4y-Mlp-6Uv0yW0TzoZ-1" style="edgeStyle=orthogonalEdgeStyle;rounded=0;orthogonalLoop=1;jettySize=auto;html=1;" edge="1" parent="1" source="eOPevNgycxf80g2ltMbL-5" target="eOPevNgycxf80g2ltMbL-14">
          <mxGeometry relative="1" as="geometry" />
        </mxCell>
        <mxCell id="eOPevNgycxf80g2ltMbL-5" value="" style="rounded=0;whiteSpace=wrap;html=1;fillColor=#d5e8d4;strokeColor=#82b366;" parent="1" vertex="1">
          <mxGeometry x="280" y="195" width="120" height="190" as="geometry" />
        </mxCell>
        <mxCell id="GP4y-Mlp-6Uv0yW0TzoZ-18" style="edgeStyle=orthogonalEdgeStyle;rounded=0;orthogonalLoop=1;jettySize=auto;html=1;entryX=1;entryY=0.5;entryDx=0;entryDy=0;" edge="1" parent="1">
          <mxGeometry relative="1" as="geometry">
            <mxPoint x="280" y="209.84" as="sourcePoint" />
            <mxPoint x="210" y="209.84" as="targetPoint" />
          </mxGeometry>
        </mxCell>
        <mxCell id="eOPevNgycxf80g2ltMbL-7" value="Consumer Process" style="rounded=0;whiteSpace=wrap;html=1;" parent="1" vertex="1">
          <mxGeometry x="450" y="275" width="120" height="30" as="geometry" />
        </mxCell>
        <mxCell id="eOPevNgycxf80g2ltMbL-9" value="Consumer Process" style="rounded=0;whiteSpace=wrap;html=1;" parent="1" vertex="1">
          <mxGeometry x="450" y="315" width="120" height="30" as="geometry" />
        </mxCell>
        <mxCell id="eOPevNgycxf80g2ltMbL-14" value="Blob Storage" style="rounded=0;whiteSpace=wrap;html=1;" parent="1" vertex="1">
          <mxGeometry x="280" y="70" width="120" height="40" as="geometry" />
        </mxCell>
        <mxCell id="eOPevNgycxf80g2ltMbL-15" value="Partition Offset(Checkpoint)&lt;div&gt;Partition Ownership&lt;/div&gt;" style="text;html=1;align=left;verticalAlign=middle;resizable=0;points=[];autosize=1;strokeColor=none;fillColor=none;" parent="1" vertex="1">
          <mxGeometry x="350" y="130" width="170" height="40" as="geometry" />
        </mxCell>
        <mxCell id="eOPevNgycxf80g2ltMbL-17" value="Partition" style="rounded=0;whiteSpace=wrap;html=1;" parent="1" vertex="1">
          <mxGeometry x="90" y="235.00000000000003" width="120" height="30" as="geometry" />
        </mxCell>
        <mxCell id="eOPevNgycxf80g2ltMbL-18" value="Partition" style="rounded=0;whiteSpace=wrap;html=1;" parent="1" vertex="1">
          <mxGeometry x="90" y="195.00000000000003" width="120" height="30" as="geometry" />
        </mxCell>
        <mxCell id="n-RJKLV1HB8E8sAymLWs-10" value="Partition" style="rounded=0;whiteSpace=wrap;html=1;" parent="1" vertex="1">
          <mxGeometry x="90" y="315" width="120" height="30" as="geometry" />
        </mxCell>
        <mxCell id="5etXErPsKn6r9TjkHKi_-2" value="EventHub&lt;div&gt;Entity&lt;/div&gt;" style="rounded=0;whiteSpace=wrap;html=1;" vertex="1" parent="1">
          <mxGeometry x="-20" y="180" width="100" height="40" as="geometry" />
        </mxCell>
        <mxCell id="5etXErPsKn6r9TjkHKi_-4" value="EventHub&lt;div&gt;Namespace&lt;/div&gt;" style="rounded=0;whiteSpace=wrap;html=1;" vertex="1" parent="1">
          <mxGeometry x="-90" y="120" width="100" height="40" as="geometry" />
        </mxCell>
        <mxCell id="5etXErPsKn6r9TjkHKi_-8" value="&lt;span style=&quot;text-wrap-mode: wrap;&quot;&gt;Consumer Group A&lt;/span&gt;" style="text;html=1;align=center;verticalAlign=middle;resizable=0;points=[];autosize=1;strokeColor=none;fillColor=none;fontStyle=1" vertex="1" parent="1">
          <mxGeometry x="275" y="275" width="130" height="30" as="geometry" />
        </mxCell>
        <mxCell id="GP4y-Mlp-6Uv0yW0TzoZ-2" value="Consumer Process" style="rounded=0;whiteSpace=wrap;html=1;" vertex="1" parent="1">
          <mxGeometry x="450" y="235" width="120" height="30" as="geometry" />
        </mxCell>
        <mxCell id="GP4y-Mlp-6Uv0yW0TzoZ-16" value="Partition" style="rounded=0;whiteSpace=wrap;html=1;" vertex="1" parent="1">
          <mxGeometry x="90" y="355" width="120" height="30" as="geometry" />
        </mxCell>
        <mxCell id="GP4y-Mlp-6Uv0yW0TzoZ-25" style="edgeStyle=orthogonalEdgeStyle;rounded=0;orthogonalLoop=1;jettySize=auto;html=1;entryX=1;entryY=0.5;entryDx=0;entryDy=0;" edge="1" parent="1">
          <mxGeometry relative="1" as="geometry">
            <mxPoint x="280" y="249.84" as="sourcePoint" />
            <mxPoint x="210" y="249.84" as="targetPoint" />
          </mxGeometry>
        </mxCell>
        <mxCell id="GP4y-Mlp-6Uv0yW0TzoZ-26" style="edgeStyle=orthogonalEdgeStyle;rounded=0;orthogonalLoop=1;jettySize=auto;html=1;entryX=1;entryY=0.5;entryDx=0;entryDy=0;" edge="1" parent="1">
          <mxGeometry relative="1" as="geometry">
            <mxPoint x="280" y="289.84000000000003" as="sourcePoint" />
            <mxPoint x="210" y="289.84000000000003" as="targetPoint" />
          </mxGeometry>
        </mxCell>
        <mxCell id="GP4y-Mlp-6Uv0yW0TzoZ-27" style="edgeStyle=orthogonalEdgeStyle;rounded=0;orthogonalLoop=1;jettySize=auto;html=1;entryX=1;entryY=0.5;entryDx=0;entryDy=0;" edge="1" parent="1">
          <mxGeometry relative="1" as="geometry">
            <mxPoint x="280" y="329.84000000000003" as="sourcePoint" />
            <mxPoint x="210" y="329.84000000000003" as="targetPoint" />
          </mxGeometry>
        </mxCell>
        <mxCell id="GP4y-Mlp-6Uv0yW0TzoZ-28" style="edgeStyle=orthogonalEdgeStyle;rounded=0;orthogonalLoop=1;jettySize=auto;html=1;entryX=1;entryY=0.5;entryDx=0;entryDy=0;" edge="1" parent="1">
          <mxGeometry relative="1" as="geometry">
            <mxPoint x="280" y="369.84000000000003" as="sourcePoint" />
            <mxPoint x="210" y="369.84000000000003" as="targetPoint" />
          </mxGeometry>
        </mxCell>
        <mxCell id="GP4y-Mlp-6Uv0yW0TzoZ-29" style="edgeStyle=orthogonalEdgeStyle;rounded=0;orthogonalLoop=1;jettySize=auto;html=1;entryX=1;entryY=0.289;entryDx=0;entryDy=0;entryPerimeter=0;endArrow=none;startFill=0;" edge="1" parent="1" source="GP4y-Mlp-6Uv0yW0TzoZ-2" target="eOPevNgycxf80g2ltMbL-5">
          <mxGeometry relative="1" as="geometry" />
        </mxCell>
        <mxCell id="GP4y-Mlp-6Uv0yW0TzoZ-30" style="edgeStyle=orthogonalEdgeStyle;rounded=0;orthogonalLoop=1;jettySize=auto;html=1;entryX=1;entryY=0.289;entryDx=0;entryDy=0;entryPerimeter=0;endArrow=none;startFill=0;" edge="1" parent="1">
          <mxGeometry relative="1" as="geometry">
            <mxPoint x="450" y="289.79" as="sourcePoint" />
            <mxPoint x="400" y="289.79" as="targetPoint" />
          </mxGeometry>
        </mxCell>
        <mxCell id="GP4y-Mlp-6Uv0yW0TzoZ-31" style="edgeStyle=orthogonalEdgeStyle;rounded=0;orthogonalLoop=1;jettySize=auto;html=1;entryX=1;entryY=0.289;entryDx=0;entryDy=0;entryPerimeter=0;endArrow=none;startFill=0;" edge="1" parent="1">
          <mxGeometry relative="1" as="geometry">
            <mxPoint x="450" y="329.79" as="sourcePoint" />
            <mxPoint x="400" y="329.79" as="targetPoint" />
          </mxGeometry>
        </mxCell>
      </root>
    </mxGraphModel>
  </diagram>
  <diagram id="gnaWg0Cd0C3IoTdDi8Od" name="Eventhub 2">
    <mxGraphModel dx="1434" dy="761" grid="1" gridSize="10" guides="1" tooltips="1" connect="1" arrows="1" fold="1" page="1" pageScale="1" pageWidth="850" pageHeight="1100" math="0" shadow="0">
      <root>
        <mxCell id="0" />
        <mxCell id="1" parent="0" />
        <mxCell id="chvIxZhLpb10gPl7ytC4-1" value="*5 Consumer Group/Partition&lt;div&gt;*1 TU: 1 MB/s (1000 events/s) | 2 MB/s (4096 events/s)&lt;/div&gt;" style="text;html=1;align=left;verticalAlign=middle;resizable=0;points=[];autosize=1;strokeColor=none;fillColor=none;fontStyle=1" vertex="1" parent="1">
          <mxGeometry x="60" y="150" width="320" height="40" as="geometry" />
        </mxCell>
      </root>
    </mxGraphModel>
  </diagram>
  <diagram id="P8rku0sG6-uAXeVYvgaL" name="HA">
    <mxGraphModel dx="1434" dy="761" grid="1" gridSize="10" guides="1" tooltips="1" connect="1" arrows="1" fold="1" page="1" pageScale="1" pageWidth="827" pageHeight="1169" math="0" shadow="0">
      <root>
        <mxCell id="0" />
        <mxCell id="1" parent="0" />
        <mxCell id="Iscw2WWDRv90DnXsVgPq-26" value="" style="rounded=0;whiteSpace=wrap;html=1;fillColor=none;dashed=1;dashPattern=8 8;" parent="1" vertex="1">
          <mxGeometry x="750" y="232" width="410" height="288" as="geometry" />
        </mxCell>
        <mxCell id="Iscw2WWDRv90DnXsVgPq-9" value="" style="rounded=0;whiteSpace=wrap;html=1;fillColor=none;dashed=1;dashPattern=8 8;" parent="1" vertex="1">
          <mxGeometry x="190" y="240" width="460" height="260" as="geometry" />
        </mxCell>
        <mxCell id="a7tb3PyIe0yYbaUcolvB-2" value="VM 1" style="rounded=0;whiteSpace=wrap;html=1;" parent="1" vertex="1">
          <mxGeometry x="290" y="300" width="60" height="60" as="geometry" />
        </mxCell>
        <mxCell id="Iscw2WWDRv90DnXsVgPq-5" style="edgeStyle=orthogonalEdgeStyle;rounded=0;orthogonalLoop=1;jettySize=auto;html=1;endArrow=none;startFill=0;" parent="1" source="a7tb3PyIe0yYbaUcolvB-4" target="Iscw2WWDRv90DnXsVgPq-3" edge="1">
          <mxGeometry relative="1" as="geometry" />
        </mxCell>
        <mxCell id="a7tb3PyIe0yYbaUcolvB-4" value="VM 2" style="rounded=0;whiteSpace=wrap;html=1;" parent="1" vertex="1">
          <mxGeometry x="490" y="300" width="60" height="60" as="geometry" />
        </mxCell>
        <mxCell id="a7tb3PyIe0yYbaUcolvB-6" style="edgeStyle=orthogonalEdgeStyle;rounded=0;orthogonalLoop=1;jettySize=auto;html=1;" parent="1" source="a7tb3PyIe0yYbaUcolvB-5" target="a7tb3PyIe0yYbaUcolvB-2" edge="1">
          <mxGeometry relative="1" as="geometry">
            <Array as="points">
              <mxPoint x="320" y="160" />
            </Array>
          </mxGeometry>
        </mxCell>
        <mxCell id="a7tb3PyIe0yYbaUcolvB-7" style="edgeStyle=orthogonalEdgeStyle;rounded=0;orthogonalLoop=1;jettySize=auto;html=1;" parent="1" source="a7tb3PyIe0yYbaUcolvB-5" target="a7tb3PyIe0yYbaUcolvB-4" edge="1">
          <mxGeometry relative="1" as="geometry">
            <Array as="points">
              <mxPoint x="520" y="160" />
            </Array>
          </mxGeometry>
        </mxCell>
        <mxCell id="a7tb3PyIe0yYbaUcolvB-5" value="LB" style="rounded=0;whiteSpace=wrap;html=1;" parent="1" vertex="1">
          <mxGeometry x="370" y="140" width="110" height="40" as="geometry" />
        </mxCell>
        <mxCell id="Iscw2WWDRv90DnXsVgPq-1" value="" style="rounded=0;whiteSpace=wrap;html=1;fillColor=none;dashed=1;dashPattern=8 8;" parent="1" vertex="1">
          <mxGeometry x="255" y="270" width="130" height="190" as="geometry" />
        </mxCell>
        <mxCell id="Iscw2WWDRv90DnXsVgPq-2" value="Disk" style="shape=cylinder3;whiteSpace=wrap;html=1;boundedLbl=1;backgroundOutline=1;size=15;" parent="1" vertex="1">
          <mxGeometry x="295" y="390" width="50" height="60" as="geometry" />
        </mxCell>
        <mxCell id="Iscw2WWDRv90DnXsVgPq-3" value="Disk" style="shape=cylinder3;whiteSpace=wrap;html=1;boundedLbl=1;backgroundOutline=1;size=15;" parent="1" vertex="1">
          <mxGeometry x="495" y="390" width="50" height="60" as="geometry" />
        </mxCell>
        <mxCell id="Iscw2WWDRv90DnXsVgPq-4" style="edgeStyle=orthogonalEdgeStyle;rounded=0;orthogonalLoop=1;jettySize=auto;html=1;entryX=0.5;entryY=0;entryDx=0;entryDy=0;entryPerimeter=0;endArrow=none;startFill=0;" parent="1" source="a7tb3PyIe0yYbaUcolvB-2" target="Iscw2WWDRv90DnXsVgPq-2" edge="1">
          <mxGeometry relative="1" as="geometry" />
        </mxCell>
        <mxCell id="Iscw2WWDRv90DnXsVgPq-6" value="AVZone 1" style="text;html=1;align=center;verticalAlign=middle;resizable=0;points=[];autosize=1;strokeColor=none;fillColor=none;" parent="1" vertex="1">
          <mxGeometry x="280" y="460" width="80" height="30" as="geometry" />
        </mxCell>
        <mxCell id="Iscw2WWDRv90DnXsVgPq-7" value="" style="rounded=0;whiteSpace=wrap;html=1;fillColor=none;dashed=1;dashPattern=8 8;" parent="1" vertex="1">
          <mxGeometry x="455" y="270" width="130" height="190" as="geometry" />
        </mxCell>
        <mxCell id="Iscw2WWDRv90DnXsVgPq-8" value="AVZone 2" style="text;html=1;align=center;verticalAlign=middle;resizable=0;points=[];autosize=1;strokeColor=none;fillColor=none;" parent="1" vertex="1">
          <mxGeometry x="480" y="460" width="80" height="30" as="geometry" />
        </mxCell>
        <mxCell id="Iscw2WWDRv90DnXsVgPq-10" value="Region" style="text;html=1;align=center;verticalAlign=middle;resizable=0;points=[];autosize=1;strokeColor=none;fillColor=none;" parent="1" vertex="1">
          <mxGeometry x="180" y="210" width="60" height="30" as="geometry" />
        </mxCell>
        <mxCell id="Iscw2WWDRv90DnXsVgPq-11" value="" style="rounded=0;whiteSpace=wrap;html=1;fillColor=none;dashed=1;dashPattern=8 8;" parent="1" vertex="1">
          <mxGeometry x="770" y="260" width="370" height="240" as="geometry" />
        </mxCell>
        <mxCell id="Iscw2WWDRv90DnXsVgPq-12" value="VM 1" style="rounded=0;whiteSpace=wrap;html=1;" parent="1" vertex="1">
          <mxGeometry x="825" y="300" width="60" height="60" as="geometry" />
        </mxCell>
        <mxCell id="Iscw2WWDRv90DnXsVgPq-13" style="edgeStyle=orthogonalEdgeStyle;rounded=0;orthogonalLoop=1;jettySize=auto;html=1;endArrow=none;startFill=0;" parent="1" source="Iscw2WWDRv90DnXsVgPq-14" target="Iscw2WWDRv90DnXsVgPq-20" edge="1">
          <mxGeometry relative="1" as="geometry" />
        </mxCell>
        <mxCell id="Iscw2WWDRv90DnXsVgPq-14" value="VM 2" style="rounded=0;whiteSpace=wrap;html=1;" parent="1" vertex="1">
          <mxGeometry x="1025" y="300" width="60" height="60" as="geometry" />
        </mxCell>
        <mxCell id="Iscw2WWDRv90DnXsVgPq-15" style="edgeStyle=orthogonalEdgeStyle;rounded=0;orthogonalLoop=1;jettySize=auto;html=1;" parent="1" source="Iscw2WWDRv90DnXsVgPq-17" target="Iscw2WWDRv90DnXsVgPq-12" edge="1">
          <mxGeometry relative="1" as="geometry">
            <Array as="points">
              <mxPoint x="855" y="160" />
            </Array>
          </mxGeometry>
        </mxCell>
        <mxCell id="Iscw2WWDRv90DnXsVgPq-16" style="edgeStyle=orthogonalEdgeStyle;rounded=0;orthogonalLoop=1;jettySize=auto;html=1;" parent="1" source="Iscw2WWDRv90DnXsVgPq-17" target="Iscw2WWDRv90DnXsVgPq-14" edge="1">
          <mxGeometry relative="1" as="geometry">
            <Array as="points">
              <mxPoint x="1055" y="160" />
            </Array>
          </mxGeometry>
        </mxCell>
        <mxCell id="Iscw2WWDRv90DnXsVgPq-17" value="LB" style="rounded=0;whiteSpace=wrap;html=1;" parent="1" vertex="1">
          <mxGeometry x="905" y="140" width="110" height="40" as="geometry" />
        </mxCell>
        <mxCell id="Iscw2WWDRv90DnXsVgPq-18" value="" style="rounded=0;whiteSpace=wrap;html=1;fillColor=none;dashed=1;dashPattern=8 8;" parent="1" vertex="1">
          <mxGeometry x="790" y="270" width="130" height="190" as="geometry" />
        </mxCell>
        <mxCell id="Iscw2WWDRv90DnXsVgPq-19" value="Disk" style="shape=cylinder3;whiteSpace=wrap;html=1;boundedLbl=1;backgroundOutline=1;size=15;" parent="1" vertex="1">
          <mxGeometry x="830" y="390" width="50" height="60" as="geometry" />
        </mxCell>
        <mxCell id="Iscw2WWDRv90DnXsVgPq-20" value="Disk" style="shape=cylinder3;whiteSpace=wrap;html=1;boundedLbl=1;backgroundOutline=1;size=15;" parent="1" vertex="1">
          <mxGeometry x="1030" y="390" width="50" height="60" as="geometry" />
        </mxCell>
        <mxCell id="Iscw2WWDRv90DnXsVgPq-21" style="edgeStyle=orthogonalEdgeStyle;rounded=0;orthogonalLoop=1;jettySize=auto;html=1;entryX=0.5;entryY=0;entryDx=0;entryDy=0;entryPerimeter=0;endArrow=none;startFill=0;" parent="1" source="Iscw2WWDRv90DnXsVgPq-12" target="Iscw2WWDRv90DnXsVgPq-19" edge="1">
          <mxGeometry relative="1" as="geometry" />
        </mxCell>
        <mxCell id="Iscw2WWDRv90DnXsVgPq-22" value="Fault&lt;div&gt;Domain 1&lt;/div&gt;" style="text;html=1;align=center;verticalAlign=middle;resizable=0;points=[];autosize=1;strokeColor=none;fillColor=none;" parent="1" vertex="1">
          <mxGeometry x="820" y="460" width="70" height="40" as="geometry" />
        </mxCell>
        <mxCell id="Iscw2WWDRv90DnXsVgPq-23" value="" style="rounded=0;whiteSpace=wrap;html=1;fillColor=none;dashed=1;dashPattern=8 8;" parent="1" vertex="1">
          <mxGeometry x="990" y="270" width="130" height="190" as="geometry" />
        </mxCell>
        <mxCell id="Iscw2WWDRv90DnXsVgPq-24" value="Fault&lt;div&gt;Domain 2&lt;/div&gt;" style="text;html=1;align=center;verticalAlign=middle;resizable=0;points=[];autosize=1;strokeColor=none;fillColor=none;" parent="1" vertex="1">
          <mxGeometry x="1020" y="460" width="70" height="40" as="geometry" />
        </mxCell>
        <mxCell id="Iscw2WWDRv90DnXsVgPq-25" value="AVSet" style="text;html=1;align=center;verticalAlign=middle;resizable=0;points=[];autosize=1;strokeColor=none;fillColor=none;" parent="1" vertex="1">
          <mxGeometry x="756" y="232" width="60" height="30" as="geometry" />
        </mxCell>
        <mxCell id="Iscw2WWDRv90DnXsVgPq-27" value="Zone" style="text;html=1;align=center;verticalAlign=middle;resizable=0;points=[];autosize=1;strokeColor=none;fillColor=none;" parent="1" vertex="1">
          <mxGeometry x="740" y="202" width="50" height="30" as="geometry" />
        </mxCell>
        <mxCell id="Iscw2WWDRv90DnXsVgPq-28" value="" style="rounded=0;whiteSpace=wrap;html=1;fillColor=none;dashed=1;dashPattern=8 8;" parent="1" vertex="1">
          <mxGeometry x="730" y="202" width="450" height="328" as="geometry" />
        </mxCell>
        <mxCell id="Iscw2WWDRv90DnXsVgPq-29" value="Region" style="text;html=1;align=center;verticalAlign=middle;resizable=0;points=[];autosize=1;strokeColor=none;fillColor=none;" parent="1" vertex="1">
          <mxGeometry x="720" y="172" width="60" height="30" as="geometry" />
        </mxCell>
      </root>
    </mxGraphModel>
  </diagram>
</mxfile>
